/* XPM */
static char * dash16_xpm[]={
"16 16 146 2",
".d c None",
"Qt c None",
".a c #bf9e7b",
".# c #bf9e7b",
".f c #000000",
".b c #021a28",
".K c #d09e35",
".y c #d7a334",
"#C c #dec355",
"#P c #d9c254",
".o c #4d949b",
".v c #4b929a",
"ai c #32878a",
"#1 c #718c78",
"#Q c #728e7b",
"an c #31888d",
".p c #2c3569",
".c c #3f7988",
".e c #3f7988",
".u c #253067",
".Z c #c9aa53",
"#a c #c29f45",
"## c #c8a952",
"#n c #c09e44",
".i c #866658",
".j c #866658",
".l c #66a5b0",
"ao c #9eba8b",
".g c #67a8b3",
".J c #789f93",
".X c #a18f47",
"ap c #9cb788",
"#. c #bd9949",
".0 c #be9949",
".M c #9f9350",
".z c #78a398",
"#o c #ceae51",
"#B c #cdad51",
"a# c #69888f",
"#2 c #6a8990",
".L c #d6b457",
"aa c #86a3a8",
".Y c #d4b358",
"ah c #83a1a7",
".x c #68aab7",
".n c #5f9ca7",
".m c #69abb8",
".w c #619fa9",
"aj c #45575a",
"am c #43585c",
".h c #62a2ae",
".q c #354169",
".t c #394469",
".k c #63a4b0",
"#A c #c8a957",
"#p c #caaa58",
".9 c #40799d",
".1 c #457fa2",
"#b c #b69b4f",
"#m c #b59b4f",
".B c #567c93",
".W c #72b3c1",
"#0 c #69858c",
".N c #71b1bf",
".H c #517891",
"#R c #69848a",
".I c #6fb6c1",
".A c #6fb5c0",
"#D c #909066",
"#O c #8e8e65",
"#y c #313c6c",
"#r c #35406f",
"#l c #48586e",
"#c c #48596f",
"#M c #526d87",
".G c #526e92",
"#J c #527c8c",
"#F c #546e89",
".C c #546f92",
"#I c #567f8f",
".Q c #58718b",
"#X c #596780",
"#U c #5c6b84",
".T c #5c748d",
"#V c #5f728b",
"#W c #61748c",
"#H c #64748b",
"#L c #667483",
"#q c #67757c",
"#z c #67757d",
".D c #686a77",
".P c #68809a",
".U c #69819a",
".4 c #6e7f99",
".F c #70727b",
".R c #707c81",
".S c #717d81",
".7 c #72829a",
"ag c #74838f",
"#N c #7499b0",
"#E c #749ab0",
"ab c #75838e",
".2 c #76959e",
".8 c #7698a1",
"#G c #778695",
"#K c #77879f",
"#v c #788096",
"#k c #788e9b",
".r c #797b87",
".V c #798092",
".s c #7a7c89",
".O c #7b8093",
"#d c #7b909b",
".E c #7d697f",
"#u c #7d869d",
"#g c #868394",
"#h c #878394",
"#x c #968b83",
"#t c #988482",
"ak c #98a77f",
"al c #9aa881",
"#T c #9d9299",
"#Y c #a1969d",
".3 c #a7878c",
"#e c #a78895",
"#j c #ad909c",
"#i c #ad9b96",
"#f c #af9f9b",
"af c #b5afb3",
"#Z c #b69f98",
"#S c #b7a099",
"ac c #b7b0b4",
"a. c #bdc4c4",
"#s c #bfb5ae",
"#3 c #c0c6c6",
".5 c #c7cac4",
"#w c #cab8b8",
".6 c #cbcdc7",
"#7 c #d0baba",
"#6 c #d0babb",
"ae c #ddd4c6",
"ad c #ddd5c6",
"#5 c #eacbc7",
"#8 c #eaccc7",
"#4 c #fff6f1",
"#9 c #fff7f2",
"QtQtQtQtQtQtQtQtQtQtQtQtQtQtQtQt",
".#.a.b.c.a.a.dQtQt.d.a.a.e.f.a.#",
"QtQt.g.hQtQtQt.i.jQtQtQt.k.lQtQt",
"QtQt.m.n.o.p.q.r.s.t.u.v.w.xQtQt",
"Qt.y.z.A.B.C.D.E.E.F.G.H.I.J.KQt",
"Qt.L.M.N.O.P.Q.R.S.T.U.V.W.X.YQt",
"Qt.Z.0.1.2.3.4.5.6.7.3.8.9#.##Qt",
"Qt#a#b#c#d#e#f#g#h#i#j#k#l#m#nQt",
"Qt#o#p#q#r#s#t#u#v#w#x#y#z#A#BQt",
"Qt#C#D#E#F#G#H#I#J#K#L#M#N#O#PQt",
"QtQt#Q#R#S#T#U#V#W#X#Y#Z#0#1QtQt",
"QtQtQt#2#3#4#5#6#7#8#9a.a#QtQtQt",
"QtQtQtQtaaabacadaeafagahQtQtQtQt",
"QtQtQtQtQtaiajakalamanQtQtQtQtQt",
"QtQtQtQtQtQtQtaoapQtQtQtQtQtQtQt",
"QtQtQtQtQtQtQtQtQtQtQtQtQtQtQtQt"};
