/* XPM */
static char * dash32_xpm[]={
"32 32 540 2",
"ga c None",
"Qt c None",
".2 c #000000",
".G c #000000",
"gl c #003d0a",
"fr c #e7d7bc",
"e9 c #f1e0c7",
".a c #ffd4a0",
".y c #00003d",
".# c #bf9e7b",
".F c #000042",
"gz c #b85d9d",
"e8 c #ffffff",
"gy c #a16d89",
"eO c #ffffff",
".b c #000000",
".c c #000000",
"a2 c #0b2c24",
"gs c #f0d1bd",
".N c #1c3f4e",
"gv c #dec7b2",
"bq c #000020",
".P c #000041",
".g c #482f0a",
"#r c #000044",
".0 c #000046",
".h c #4a300d",
"aH c #2b5a62",
"gm c #004f7e",
"gr c #045d8a",
"a5 c #95762b",
"bt c #91732a",
".u c #1a4250",
".f c #194555",
"eq c #4d5d2c",
"eN c #4c5b2d",
"#O c #b6953c",
"db c #ac8c3a",
".o c #133643",
"ad c #b1913c",
"dC c #a88a39",
".l c #2b5e6d",
"gw c #aeb799",
".i c #285b6a",
"d2 c #759d69",
".z c #01246b",
".E c #01256b",
"fY c #236163",
"ep c #739967",
"#q c #2b5663",
"g# c #226468",
".r c #214e5d",
"gx c #abb897",
"dD c #75965d",
"#. c #3b4162",
"d1 c #73925a",
".5 c #3c717e",
"bu c #6f4e07",
".J c #3f727f",
".4 c #437580",
"bS c #6e4e09",
"#l c #192455",
"bT c #c0a046",
"eM c #7f8c8d",
"ci c #bd9e46",
"gb c #559593",
"fJ c #6e8082",
"ab c #d09f36",
"gk c #549694",
"fX c #657b7f",
"er c #818f91",
".v c #49828f",
".K c #4d8590",
"#Q c #c09433",
".k c #4a8694",
"fI c #8b9fab",
".O c #477f8d",
"fs c #8ca4b1",
"ag c #a6741c",
"aC c #a7771c",
".1 c #477f8d",
"aB c #527c7f",
"fq c #a0c2ca",
".7 c #417582",
"f. c #a2c7cf",
".Q c #1b2f68",
".M c #4a818e",
".A c #685e5b",
"cN c #caa542",
".d c #508e9c",
".Z c #132968",
"d. c #c9a543",
".D c #6c605a",
"br c #debc57",
"#o c #4e8894",
"ah c #58878b",
"d# c #c2a34d",
"a7 c #dab857",
"cM c #c1a24d",
".3 c #528e9b",
"#n c #5895a1",
"gn c #95aa86",
"gq c #99ad8a",
".p c #9e6e56",
"gt c #a6ba91",
"aD c #cbae59",
"af c #cbae59",
".q c #9e6d56",
"bw c #555a5b",
".8 c #61a2ae",
"cL c #d1b359",
"aa c #599aaa",
"bV c #d8b451",
"aF c #d3b55c",
"cg c #d8b451",
"bR c #555c5d",
"da c #cfb158",
"#P c #d3b358",
"ac c #d1b257",
"a4 c #d1b35b",
"cJ c #c9aa53",
"ck c #c8aa53",
"gc c #5d7f7a",
"gj c #587e7d",
"a3 c #d4b75e",
"#R c #5fa2b2",
"cl c #cbaa4b",
"cj c #d1b259",
"ae c #d8ba5e",
"eP c #86b3bf",
"cI c #cba94c",
"aG c #d3b65e",
"cK c #cfb158",
"aE c #d5b85e",
"fZ c #528d90",
"e7 c #87b2bf",
".e c #5597a5",
".x c #5793a0",
".j c #5799a7",
"#v c #4b6578",
"gu c #9db185",
"g. c #518d91",
"bU c #c7a74d",
"ch c #c7a74c",
".R c #24356d",
".9 c #60a3ad",
".Y c #25366d",
"dc c #d8b95e",
".H c #5d9ca8",
"dB c #d7b85d",
"## c #4c597b",
"#K c #44667e",
"#k c #4e5b7d",
"a6 c #dbbe64",
"bs c #dabd63",
"d3 c #8aa070",
"eo c #89a16f",
"a1 c #72b8c0",
"bv c #ebc962",
"#m c #65a9b3",
"#N c #6eaeb8",
"en c #6f7d80",
"a8 c #477591",
"bp c #3b6486",
"aI c #77bfc6",
"d4 c #708080",
"cm c #ae965b",
"gd c #6e7365",
"cH c #aa935b",
"dd c #debd5d",
"gi c #6f7567",
"dA c #dcbb5c",
"#s c #72b3bd",
"fK c #758e95",
"cO c #c0ab69",
"c9 c #bca768",
"fW c #748f96",
"c6 c #052161",
"cR c #072461",
"dw c #172862",
"bQ c #172f67",
"ce c #173a67",
"bx c #183168",
"bX c #193b67",
"dh c #1c2c64",
".S c #223c68",
"dt c #231911",
".X c #253f67",
"cE c #2c3d68",
"eD c #2d4d7f",
"cp c #2e3e68",
"dk c #32251a",
"cn c #32445f",
"eA c #325281",
"c7 c #344963",
"#b c #364d78",
"fL c #3a4969",
"eg c #3a557f",
"cS c #3b4f77",
"dg c #3b5282",
"cG c #3c4d61",
"fV c #3c4d6d",
"cQ c #3f5364",
"e# c #3f5a85",
"f8 c #414d5c",
"dx c #415987",
"#9 c #425779",
"bM c #434464",
"av c #445a84",
"c3 c #453f3d",
"#i c #465d7f",
"f1 c #474f5a",
"an c #475d86",
"eK c #483f3a",
"c5 c #485d85",
"et c #493935",
"bB c #4a4161",
"e6 c #4a4747",
"dv c #4a557f",
"#j c #4a5b7f",
"#1 c #4a5c76",
"#2 c #4a5d77",
"eQ c #4b4443",
"di c #4b577f",
"dq c #4b6890",
"eh c #4c698e",
"ez c #4c7293",
"f0 c #4c8e94",
"bd c #4d6590",
"f9 c #4d9196",
"e. c #4e6b8f",
"do c #4e818b",
"dp c #4e828b",
"ea c #4f668a",
"eE c #4f7394",
"#z c #506375",
"#U c #506381",
"dn c #506d94",
"#a c #516384",
"bi c #526c94",
"ef c #536a8d",
"aU c #536d96",
"dP c #537e76",
"ao c #546b91",
"b7 c #547891",
"dQ c #547f76",
"d9 c #548ea6",
"#G c #566b7a",
"cc c #566c88",
"#x c #566f91",
"aP c #567098",
"b6 c #567992",
"bP c #568ea4",
"b2 c #584564",
"#I c #587292",
"#y c #587597",
"#H c #587799",
"#T c #5893a5",
"b. c #596479",
"au c #597093",
"bZ c #59718b",
"#7 c #5984a6",
"as c #5a6c67",
"#W c #5a86a8",
"ek c #5b4c4d",
"aQ c #5b7289",
"bA c #5ba2af",
"f2 c #5c474c",
"d7 c #5c4b4d",
"ar c #5c6d68",
"aV c #5c789f",
"ei c #5c95ab",
"aO c #5d789f",
"c# c #5e4967",
"bn c #5e6a7f",
"#J c #5e708b",
"#6 c #5e7c9a",
"by c #5e9bad",
"a. c #5e9eae",
"f7 c #5f4a4b",
"cU c #5f5650",
"aN c #5f7b99",
"b5 c #605f82",
"#Y c #607787",
"ed c #607a8f",
"dJ c #607f99",
"dW c #60809a",
"bN c #60a9b5",
"ec c #617b90",
"dR c #6189a5",
"b8 c #625e82",
"#X c #637d99",
".V c #6385a3",
"dO c #638ba5",
"#w c #647993",
"aW c #647f99",
"dS c #64809a",
"fU c #654c5f",
"aT c #667c8f",
"f# c #669098",
"eF c #6695a9",
"ey c #6698ab",
"cP c #677b8f",
".U c #6785a2",
"#Z c #687172",
"c8 c #687d91",
"dN c #68849e",
"#3 c #695182",
"#e c #697fa4",
"aj c #698696",
"#V c #6989a4",
"fp c #69949d",
"fM c #6a4f62",
"f6 c #6a6364",
"f3 c #6a6465",
"dX c #6a8aa3",
"dI c #6a8ba3",
"#f c #6b7fa5",
"ap c #6b8481",
"aJ c #6b90a0",
"#0 c #6d5484",
"az c #6d929e",
"d6 c #6d9ea3",
"cd c #6e6f8f",
"#5 c #6e848d",
"ge c #6e897b",
"#8 c #6e8ca4",
".n c #6eb1bb",
"a9 c #6eb8c3",
"#D c #6f6284",
"dZ c #6f7579",
"el c #6fa3a8",
"bY c #707290",
"eB c #707a91",
"at c #708781",
"a0 c #709ba8",
".t c #70b2bc",
"#C c #716282",
"#c c #716469",
"dV c #717b92",
"bo c #71bec7",
"cV c #736d66",
"dF c #737a7a",
"dm c #737e92",
"#4 c #747b78",
"gh c #748d7f",
"#p c #74b7c1",
".s c #74b7c2",
"#h c #756568",
"b3 c #756d7b",
"cw c #757997",
"ee c #758ba4",
".m c #75b8c3",
".6 c #75b9c3",
"#u c #75bdc6",
"ej c #768384",
"am c #768998",
"eb c #768da5",
"#t c #76b9c4",
"d8 c #778789",
"#M c #77bbc6",
"dy c #78a2bb",
".L c #78bcc6",
"#L c #78c0c9",
"dl c #796d64",
".C c #796f75",
"c. c #79717c",
"df c #79a3bc",
"#A c #7b6b74",
".B c #7b6e73",
"dz c #7c7871",
"cx c #7c7e98",
"dK c #7c859e",
"bc c #7c8aa2",
"aw c #7c8d99",
"cY c #7c8ea0",
".I c #7cc0c9",
"de c #7d7a73",
"bj c #7d8aa1",
"bz c #7dbfc4",
"ay c #7e758e",
"es c #7eb5c2",
".w c #7ec3cc",
"aA c #7ec8d1",
"e0 c #7f7e84",
"eC c #7f8a9a",
"bO c #7fc1c5",
"ai c #7fcad4",
"dr c #808b9f",
"eY c #808d94",
"em c #80adbf",
"eL c #80b6c4",
"bm c #818285",
"ax c #818f9c",
"dH c #81afbe",
"d5 c #81afc1",
"eX c #828388",
"aZ c #828797",
"dY c #82a5b6",
"dG c #82a6b7",
"ak c #837c93",
"b# c #838386",
"eG c #83898a",
"eZ c #849398",
"cZ c #8495a3",
"cD c #856276",
"ex c #858f90",
"al c #85909c",
"d0 c #86814e",
"#F c #877379",
"dE c #87824d",
"aK c #888d9b",
"a# c #89d0d7",
"cq c #8b6678",
"#S c #8cd3da",
"dM c #8d95a1",
"cf c #8e855c",
"du c #8f867d",
"aY c #8f878c",
"aL c #90858a",
"bW c #90865d",
"bJ c #90a499",
"eW c #917a7b",
"c4 c #918a81",
"e1 c #927979",
"bD c #92908c",
"bE c #92a599",
".T c #937570",
"c0 c #9393a9",
"ew c #945553",
"fo c #949492",
".W c #967771",
"fH c #96bdc3",
"eH c #975856",
"aM c #978d92",
"gp c #97bc84",
"go c #97bd85",
"aq c #989285",
"b9 c #989c8e",
"cX c #9999ad",
"b4 c #9a9e8f",
"ft c #9abfc5",
"aX c #9b8d92",
"dU c #9b97a1",
"fa c #9b9997",
"bK c #9e988f",
"dT c #9ea6b3",
"eV c #9f5858",
"e2 c #a15857",
"co c #a19f81",
"cF c #a1a081",
"dL c #a3a1ab",
"b1 c #a77a82",
"cv c #a77e90",
"#g c #a78986",
"ca c #a87c83",
"#d c #a88782",
"#E c #ab716e",
"cW c #aba1a7",
"c1 c #aca1a6",
"#B c #ad7270",
"cy c #ae8191",
"bH c #b9999f",
"cb c #baaca5",
"be c #bac9cb",
"bG c #bb9ca1",
"f5 c #bec088",
"f4 c #bfc288",
"b0 c #c1aea6",
"bb c #c39797",
"aR c #c4cfc8",
"aS c #c4d0c9",
"bh c #c4d2d1",
"bk c #c69696",
"fT c #c6babc",
"fN c #c8bcbd",
"eJ c #c99390",
"gf c #cbd9a3",
"gg c #cddaa5",
"eu c #d09c99",
"bl c #d4a09a",
"fj c #d79c9a",
"eU c #d7a3a1",
"fQ c #d7cbb3",
"fg c #d89f9d",
"fR c #d8cdb6",
"fF c #d8d0cb",
"fh c #d9b2af",
"fi c #d9b3b1",
"e5 c #d9c4c0",
"fv c #d9d2cc",
"bF c #d9ddcc",
"ba c #daa19a",
"e3 c #daa7a5",
"bI c #dadbcb",
"bC c #db8f91",
"cz c #dd9d99",
"bL c #de8f91",
"cu c #de9e99",
"cA c #decdca",
"fu c #dfd6d4",
"fG c #dfd7d5",
"fO c #e1cbc6",
"eR c #e1ceca",
"ct c #e3d2cf",
"ff c #e5b3b1",
"ds c #e5dcd5",
"fk c #e7b8b6",
"ev c #e9dbd9",
"eI c #ebdcda",
"eT c #eccecc",
"e4 c #eccfcd",
"fy c #ecefee",
"cr c #edd4c9",
"fS c #f0e2dd",
"c2 c #f0f1ee",
"fP c #f1e3df",
"fE c #f3e6e0",
"fw c #f3e7e1",
"fd c #f4f6f4",
"fA c #f4f6f8",
"fm c #f5f7f5",
"fB c #f5f7f9",
"cs c #f6f2f1",
"fC c #f7fcfa",
"cB c #f8f4f3",
"fn c #f8f7f5",
"cC c #f9e0d6",
"dj c #f9f2ed",
"fl c #f9f6f4",
"fc c #f9f9f7",
"fz c #f9fefc",
"bg c #faf0d9",
"fe c #faf6f4",
"bf c #fbf1db",
"fD c #fbf8f6",
"fx c #fbf9f6",
"cT c #fdfcf9",
"fb c #fffcfa",
"eS c #ffffff",
"QtQtQtQtQtQtQtQtQtQtQtQtQtQtQtQtQtQtQtQtQtQtQtQtQtQtQtQtQtQtQtQt",
"QtQtQtQtQtQtQtQtQtQtQtQtQtQtQtQtQtQtQtQtQtQtQtQtQtQtQtQtQtQtQtQt",
".#.#.#.#.aQt.bQt.#.#.#.#.#.#.#QtQt.#.#.#.#.#.#.#Qt.cQt.#.#.#.#.#",
"QtQtQtQtQt.d.e.fQtQtQtQtQtQtQt.g.hQtQtQtQtQtQtQt.i.j.kQtQtQtQtQt",
"QtQtQtQt.l.m.n.oQtQtQtQtQtQtQt.p.qQtQtQtQtQtQtQt.r.s.t.uQtQtQtQt",
"QtQtQtQt.v.w.xQtQtQtQtQt.y.z.A.B.C.D.E.FQtQtQtQt.G.H.I.JQtQtQtQt",
"QtQtQtQt.K.L.M.N.OQt.P.Q.R.S.T.U.V.W.X.Y.Z.0Qt.1.2.3.L.4QtQtQtQt",
"QtQtQtQt.5.6.7.8.9#.###a#b#c#d#e#f#g#h#i#j#k#l#m#n#o#p#qQtQtQtQt",
"QtQtQtQt#r#s#t#u#v#w#x#y#z#A#B#C#D#E#F#G#H#I#J#K#L#M#N.GQtQtQtQt",
"QtQt#O#P#Q#R#S#T#U#V#W#X#Y#Z#0#1#2#3#4#5#6#7#8#9a.a#aaabacadQtQt",
"QtQtaeafagahaiajakalamanaoapaqarasaqatauavawaxayazaAaBaCaDaEQtQt",
"QtQtaFaGQtaHaIaJaKaLaMaNaOaPaQaRaSaTaUaVaWaXaYaZa0a1a2Qta3a4QtQt",
"QtQta5a6a7.ba8a9b.b#babbbcbdbebfbgbhbibjbkblbmbnbobpbqbrbsbtQtQt",
"QtQtQtbubvbwbxbybzbAbBbCbDbEbFbGbHbIbJbKbLbMbNbObPbQbRbvbSQtQtQt",
"QtQtbTbUbVbWbXbYbZb0b1b2b3b4b5b6b7b8b9c.c#cacbcccdcecfcgchciQtQt",
"QtQtcjckclcmcncocpcqcrcsctcucvcwcxcyczcAcBcCcDcEcFcGcHcIcJcKQtQt",
"QtQtcLcMcNcOcPcQcRcScTcUcVcWcXcYcZc0c1c2c3c4c5c6c7c8c9d.d#daQtQt",
"QtQtdbdcdddedfdgdhdidjdkdldmdndodpdqdrdsdtdudvdwdxdydzdAdBdCQtQt",
"QtQtQtdDdEdFdGdHdIdJdKdLdMdNdOdPdQdRdSdTdUdVdWdXdHdYdZd0d1QtQtQt",
"QtQtQtd2d3d4d5d6d7d8d9e.e#eaebecedeeefegeheiejekelemeneoepQtQtQt",
"QtQtQtQteqereseteuevewexeyezeAeBeCeDeEeFeGeHeIeJeKeLeMeNQtQtQtQt",
"QtQtQtQtQteOePeQeReSeTeUeVeWeXeYeZe0e1e2e3e4eSe5e6e7e8QtQtQtQtQt",
"QtQtQtQtQte9f.f#fafbfcfdfefffgfhfifjfkflfmfnfbfofpfqfrQtQtQtQtQt",
"QtQtQtQtQtQtQtfsftfufvfwfxfyfzfAfBfCfyfDfEfFfGfHfIQtQtQtQtQtQtQt",
"QtQtQtQtQtQtQtQtfJfKfLfMfNfOfPfQfRfSfOfTfUfVfWfXQtQtQtQtQtQtQtQt",
"QtQtQtQtQtQtQtQtQtfYfZf0f1f2f3f4f5f6f7f8f9g.g#QtQtQtQtQtQtQtQtQt",
"QtQtQtQtQtQtQtQtQtQtgagbgcgdgegfggghgigjgkglQtQtQtQtQtQtQtQtQtQt",
"QtQtQtQtQtQtQtQtQtQtQtQtQtgmgngogpgqgrQtQtQtQtQtQtQtQtQtQtQtQtQt",
"QtQtQtQtQtQtQtQtQtQtQtQtQtQtgsgtgugvQtQtQtQtQtQtQtQtQtQtQtQtQtQt",
"QtQtQtQtQtQtQtQtQtQtQtQtQtQtQtgwgxQtQtQtQtQtQtQtQtQtQtQtQtQtQtQt",
"QtQtQtQtQtQtQtQtQtQtQtQtQtQtQtgygzQtQtQtQtQtQtQtQtQtQtQtQtQtQtQt",
"QtQtQtQtQtQtQtQtQtQtQtQtQtQtQtQtQtQtQtQtQtQtQtQtQtQtQtQtQtQtQtQt"};
